<svg xmlns="http://www.w3.org/2000/svg" viewBox="0 0 64 64" width="64" height="64">
  <rect width="64" height="64" rx="12" fill="#F1F2F4"/>
  <circle cx="32" cy="32" r="27" fill="none" stroke="#8E939B" stroke-width="2"/>
  <circle cx="32" cy="32" r="23" fill="none" stroke="#B3B7BD" stroke-width="1"/>
  <path d="M19 17 H45 V36 Q45 45 32 51 Q19 45 19 36 Z" fill="#2E5274"/>
  <g stroke="#FFFFFF" stroke-opacity="0.34" stroke-width="0.9">
    <path d="M24 17 V51 M30 17 V51 M36 17 V51 M42 17 V51"/>
    <path d="M19 23 H45 M19 29 H45 M19 35 H45 M19 41 H45"/>
  </g>
  <path d="M32 21 L42 30 L38 34 L32 28 L26 34 L22 30 Z" fill="#FFFFFF" fill-opacity="0.92"/>
  <path d="M22 41 L34 29 L38 33 L26 45 Z" fill="#FFFFFF" fill-opacity="0.7"/>
  <path d="M19 17 H45 V36 Q45 45 32 51 Q19 45 19 36 Z" fill="none" stroke="#16181C" stroke-opacity="0.4" stroke-width="1.4"/>
</svg>
